<?xml version="1.0" encoding="utf-8"?>
<!-- Generator: Adobe Illustrator 26.2.1, SVG Export Plug-In . SVG Version: 6.00 Build 0)  -->
<svg version="1.1" id="Layer_1" xmlns="http://www.w3.org/2000/svg" xmlns:xlink="http://www.w3.org/1999/xlink" x="0px" y="0px"
	 viewBox="0 0 1920 1080" style="enable-background:new 0 0 1920 1080;" xml:space="preserve">
<style type="text/css">
	.st0{display:none;fill:#FFFFFF;}
</style>
<g>
	<path d="M781,657c0-1.67,0-3.33,0-5c0.98-5.15,1.66-10.38,3-15.43c2.94-11.07,6.22-12.95,17.24-10.57c1.1,0.24,2.22,0.43,3.94,0.75
		c1.8-14.59,3.58-28.96,5.44-44.08c6.33,4.88,12.07,8.9,17.27,13.53c1.79,1.59,3.21,4.73,3.13,7.1c-0.33,9.64-1.34,19.26-2.05,28.89
		c-0.6,8.15,0.08,9.22,7.55,12.53c23.72,10.53,48.5,17.37,74.11,21.29c7.02,1.07,14.03,2.15,21.6,3.3
		c0.47-10.08,3.82-18.2,11.17-25.13c-13.55-1.95-24.93-7.25-36.27-12.9c-11.74-5.86-23.66-11.43-35.8-16.4
		c-20.05-8.21-38.26-19.12-54.9-33.08c-12.87-10.79-18.58-23.92-17.3-40.38c1.79-23.07,3.52-46.14,5.49-69.19
		c1.64-19.17,2.59-38.34-3.85-56.85c-9.91-28.5-12.13-57.48-6.66-87.08c0.48-2.61,1.87-5.06,3.19-8.51
		c2.86,2.46,5.04,3.96,6.76,5.89c5.64,6.34,11.03,12.92,16.67,19.26c10.47,11.77,20.28,11.9,30.74,0.37
		c11.07-12.21,21.98-24.57,33.06-36.77c1.99-2.2,4.24-4.3,6.72-5.9c5.86-3.77,12.08-2.11,15.03,4.23c1.66,3.56,2.49,7.55,3.38,11.42
		c1.41,6.14,2.83,6.93,8.95,6.17c13.19-1.62,26.42-3.9,39.65-4c13.74-0.1,27.52,1.88,41.25,3.3c7.51,0.78,8.32,0.68,11.42-5.58
		c2.58-5.22,5.07-10.49,7.86-15.6c2.47-4.52,5.42-4.94,9.25-1.6c1.25,1.09,2.35,2.36,3.49,3.57c13.3,14.24,26.46,28.61,39.93,42.68
		c9.26,9.66,18.92,8.95,27.65-1.29c6.38-7.47,12.9-14.82,19.54-22.06c1.06-1.16,3.21-2.1,4.65-1.87c1,0.16,2.14,2.42,2.38,3.88
		c4.47,27.4,5.12,54.64-3.13,81.59c-3.83,12.51-9.23,24.74-8.05,38.32c2.65,30.68,5.18,61.37,7.98,92.03
		c1.63,17.74-3.82,32.71-17.55,43.95c-8.6,7.03-17.63,13.98-27.48,18.94c-23.88,12.02-48.33,22.91-72.61,34.14
		c-7.77,3.59-15.72,6.8-24.03,10.37c7.31,6.5,9.36,14.66,10.18,23.06c0.73,0.2,1.05,0.38,1.34,0.35
		c33.23-3.28,65.08-11.71,95.52-25.46c4.76-2.15,6.82-5.36,6.2-10.61c-1.03-8.76-1.73-17.56-2.71-26.33
		c-0.55-4.89-0.05-9.6,3.94-12.77c4.77-3.78,10.03-6.95,15.56-10.72c0.8,6.92,1.52,13.03,2.2,19.14c0.68,6.12,1.33,12.25,1.99,18.37
		c0.33,3.07,0.57,6.36,4.88,6.04c13.06-0.94,16.15-0.89,20.06,13.71c0,9.33,0,18.67,0,28c-1.18,6-1.9,12.13-3.61,17.97
		c-20.6,70.48-66.51,114.14-138.45,129.93c-7.9,1.73-15.96,2.75-23.94,4.1c-10.67,0-21.33,0-32,0c-0.9-0.31-1.78-0.79-2.7-0.89
		c-22.44-2.3-43.63-8.77-63.32-19.68c-47.96-26.59-80.33-65.24-91.51-119.93C782.95,672.08,782.14,664.5,781,657z M932.32,670.01
		c0.79,2.34,1.37,4.23,2.07,6.06c3.38,8.78,2.69,11.54-4.56,17.36c-1.29,1.04-2.63,2.11-4.12,2.8
		c-12.54,5.81-16.99,21.46-10.07,34.66c1.32,2.52,2.12,5.75,1.92,8.57c-1,14.32,7.86,25.41,22.06,27.84
		c4.75,0.81,9.57,2.43,13.84,4.67c11.84,6.21,25.71,2.9,33.64-8.1c2.24-3.1,5.35-5.92,8.67-7.81c9.64-5.47,17.03-17.47,12.04-31.04
		c-2.14-5.83-3.05-12.22-3.78-18.45c-0.98-8.42-4.68-14.78-12.02-18.98c-1.99-1.14-4.11-2.07-6.33-3.18
		c1.58-4.36,3.1-8.51,4.65-12.8c-5.07-1.49-8.39-0.38-10.83,4.05c-1.54,2.8-3.96,5.12-6.11,7.81c-7.03-5.72-14.41-7.92-22.79-6.45
		c-6.4,1.13-7.48,0.2-8.13-7.09c12.96,0,25.89,0,38.74,0c1.45-11.37-5.4-21.2-15.6-22.97c-13.55-2.35-21.37,4.72-25.15,23.04
		C937.94,670.01,935.34,670.01,932.32,670.01z M875.27,532.97c-0.09,1.76-0.22,2.57-0.17,3.38c1,16.6,1.94,33.21,3.08,49.8
		c0.82,11.96,7.02,20.52,17.43,26.16c15.45,8.37,31.81,10.64,48.72,6.03c11.53-3.14,22.97-2.82,34.62-1.71
		c10.75,1.02,21.53,1.95,32.32,2.3c10.51,0.34,18.95-4.55,23.99-13.53c3.26-5.79,5.27-12.53,6.62-19.1
		c3.6-17.49,0.03-35.95,7.87-53.52c-9.06,5.31-13.55,12.93-13.78,22c-0.21,8.48-0.52,16.96-0.97,25.43
		c-0.8,14.99-12.18,27.48-26.71,29.88c-13.81,2.28-27.19,1.03-40.1-4.32c-5.42-2.25-10.51-2.27-15.87,0.12
		c-13.04,5.81-26.67,6.58-40.54,4c-17.31-3.22-25.56-14.68-24.22-32.54c0.62-8.29,0.57-16.65,0.45-24.97
		C887.88,543.74,882.9,538.01,875.27,532.97z M882.27,486.18c15.94,0.27,28.52-7.53,41.35-14.52c2.75-1.5,2.45-3.76-0.1-5.48
		c-1.09-0.73-2.36-1.23-3.58-1.74c-19.6-8.25-39.37-16.16-58.74-24.92c-6.5-2.94-10.97-1.44-15.71,2.59
		c-3.61,3.07-4.72,7.09-2.13,11.1c4.88,7.53,9.86,15.04,15.36,22.12C864.7,483.02,872.94,486.59,882.27,486.18z M1038.81,486.04
		c8.97,0.18,16.95-2.54,22.77-9.42c4.93-5.82,9.28-12.19,13.39-18.62c3.37-5.26,2.7-10.83-0.83-15.95
		c-2.67-3.87-5.86-5.35-10.67-3.2c-10.32,4.62-20.84,8.78-31.27,13.18c-10.73,4.52-21.46,9.05-32.12,13.73
		c-1.32,0.58-2.73,2.02-3.07,3.33c-0.19,0.73,1.6,2.28,2.77,2.99c3.13,1.89,6.41,3.53,9.64,5.25
		C1018.64,482.22,1028.21,485.86,1038.81,486.04z M960.47,579c13.67,0.08,25.32-10.83,26.59-24.7c0.38-4.12-0.58-7.48-3.74-10.26
		c-5.36-4.72-10.65-9.52-15.94-14.31c-4.14-3.75-8.65-3.72-13.34-1.3c-8.04,4.14-14.34,10.17-18.82,17.99
		c-1.02,1.77-1.59,4.08-1.56,6.13C933.87,567.36,945.68,578.91,960.47,579z"/>
	<path class="st0" d="M1140,640c-3.91-14.6-7-14.65-20.06-13.71c-4.31,0.31-4.55-2.97-4.88-6.04c-0.66-6.12-1.31-12.25-1.99-18.37
		c-0.68-6.11-1.4-12.22-2.2-19.14c-5.53,3.77-10.79,6.94-15.56,10.72c-3.99,3.17-4.49,7.87-3.94,12.77
		c0.98,8.77,1.67,17.57,2.71,26.33c0.62,5.25-1.44,8.46-6.2,10.61c-30.45,13.75-62.3,22.18-95.52,25.46
		c-0.29,0.03-0.6-0.15-1.34-0.35c-0.82-8.4-2.87-16.56-10.18-23.06c8.31-3.57,16.26-6.78,24.03-10.37
		c24.28-11.22,48.73-22.12,72.61-34.14c9.85-4.96,18.88-11.91,27.48-18.94c13.73-11.24,19.18-26.2,17.55-43.95
		c-2.81-30.66-5.34-61.35-7.98-92.03c-1.17-13.58,4.22-25.81,8.05-38.32c8.25-26.94,7.6-54.19,3.13-81.59
		c-0.24-1.46-1.38-3.72-2.38-3.88c-1.44-0.23-3.59,0.71-4.65,1.87c-6.64,7.24-13.16,14.59-19.54,22.06
		c-8.73,10.24-18.39,10.95-27.65,1.29c-13.48-14.07-26.63-28.44-39.93-42.68c-1.14-1.22-2.24-2.48-3.49-3.57
		c-3.84-3.34-6.78-2.93-9.25,1.6c-2.79,5.11-5.27,10.38-7.86,15.6c-3.1,6.27-3.92,6.36-11.42,5.58c-13.73-1.42-27.5-3.4-41.25-3.3
		c-13.23,0.1-26.46,2.38-39.65,4c-6.12,0.75-7.54-0.04-8.95-6.17c-0.89-3.87-1.72-7.85-3.38-11.42c-2.95-6.34-9.17-8-15.03-4.23
		c-2.48,1.6-4.72,3.7-6.72,5.9c-11.07,12.21-21.98,24.57-33.06,36.77c-10.46,11.53-20.27,11.4-30.74-0.37
		c-5.64-6.34-11.03-12.92-16.67-19.26c-1.71-1.93-3.9-3.43-6.76-5.89c-1.32,3.45-2.71,5.9-3.19,8.51
		c-5.47,29.6-3.25,58.59,6.66,87.08c6.44,18.51,5.48,37.68,3.85,56.85c-1.97,23.05-3.7,46.12-5.49,69.19
		c-1.27,16.46,4.43,29.59,17.3,40.38c16.64,13.96,34.85,24.87,54.9,33.08c12.14,4.97,24.05,10.55,35.8,16.4
		c11.34,5.65,22.72,10.95,36.27,12.9c-7.34,6.94-10.7,15.05-11.17,25.13c-7.56-1.16-14.58-2.23-21.6-3.3
		c-25.62-3.92-50.39-10.77-74.11-21.29c-7.48-3.32-8.15-4.38-7.55-12.53c0.71-9.63,1.71-19.25,2.05-28.89
		c0.08-2.37-1.34-5.51-3.13-7.1c-5.2-4.63-10.94-8.65-17.27-13.53c-1.87,15.12-3.64,29.49-5.44,44.08
		c-1.72-0.33-2.84-0.52-3.94-0.75c-11.02-2.37-14.3-0.49-17.24,10.57c-1.34,5.05-2.02,10.28-3,15.43c0-131,0-262,0-393
		c79.33,0,158.67,0,238,0c1.02,10.94,1.34,22.26,9.11,31.02c15.13,17.05,30.36,34.02,46.08,50.53c7.91,8.3,15.07,7.77,22.59-0.86
		c8.09-9.28,15.99-18.77,23.36-28.62c9.98-13.33,4.39-31.51-11.25-37.3c-23.25-8.61-47.17-13.92-72.13-13.81
		c-3.92,0.02-7.84-0.62-11.77-0.95c38.33,0,76.67,0,115,0C1140,386,1140,513,1140,640z M878.09,260.5
		c-24.06-0.07-47.25,4.36-69.21,14.43c-12.67,5.8-16.68,17.98-9.25,29.69c7.48,11.78,15.47,23.26,23.62,34.59
		c5.85,8.14,14.88,9.03,22.56,2.55c2.9-2.45,5.3-5.5,7.87-8.33c11.16-12.3,22.13-24.79,33.5-36.9c8.46-9.01,12.73-19.27,11.77-31.68
		c-0.23-2.95-0.95-4.58-4.39-4.42C889.07,260.68,883.58,260.5,878.09,260.5z"/>
	<path class="st0" d="M781,657c1.14,7.5,1.95,15.08,3.46,22.5c11.18,54.69,43.55,93.33,91.51,119.93
		c19.69,10.92,40.89,17.39,63.32,19.68c0.92,0.09,1.8,0.58,2.7,0.89c-53.67,0-107.33,0-161,0C781,765.67,781,711.33,781,657z"/>
	<path class="st0" d="M974,820c7.98-1.35,16.04-2.37,23.94-4.1c71.94-15.78,117.85-59.44,138.45-129.93
		c1.71-5.84,2.43-11.97,3.61-17.97c0,50.59,0,101.17,0,152C1084.67,820,1029.33,820,974,820z"/>
	<path d="M1025,259c3.92,0.33,7.85,0.97,11.77,0.95c24.96-0.11,48.87,5.2,72.13,13.81c15.64,5.79,21.23,23.97,11.25,37.3
		c-7.38,9.85-15.27,19.34-23.36,28.62c-7.52,8.63-14.69,9.16-22.59,0.86c-15.72-16.5-30.95-33.48-46.08-50.53
		c-7.77-8.76-8.09-20.08-9.11-31.02C1021,259,1023,259,1025,259z"/>
	<path class="st0" d="M932.32,670.01c3.02,0,5.62,0,8.14,0c3.78-18.32,11.6-25.38,25.15-23.04c10.2,1.77,17.05,11.59,15.6,22.97
		c-12.85,0-25.77,0-38.74,0c0.65,7.29,1.73,8.22,8.13,7.09c8.38-1.48,15.76,0.73,22.79,6.45c2.15-2.69,4.57-5.01,6.11-7.81
		c2.44-4.43,5.76-5.54,10.83-4.05c-1.56,4.28-3.07,8.44-4.65,12.8c2.23,1.11,4.34,2.04,6.33,3.18c7.34,4.2,11.04,10.56,12.02,18.98
		c0.73,6.22,1.64,12.62,3.78,18.45c4.99,13.58-2.4,25.58-12.04,31.04c-3.32,1.88-6.44,4.71-8.67,7.81
		c-7.93,10.99-21.8,14.3-33.64,8.1c-4.27-2.24-9.08-3.86-13.84-4.67c-14.2-2.43-23.05-13.52-22.06-27.84
		c0.2-2.82-0.6-6.05-1.92-8.57c-6.92-13.2-2.47-28.85,10.07-34.66c1.49-0.69,2.83-1.76,4.12-2.8c7.25-5.82,7.94-8.58,4.56-17.36
		C933.69,674.23,933.12,672.34,932.32,670.01z M967.62,687.55c-6.43-4.75-12.52-5.86-19.26-2.83c-7.33,3.29-10.77,9.16-11.13,16.91
		c-0.28,5.96-0.25,11.95-0.2,17.92c0.04,5.08,3.07,7.92,8.81,8.52c0-6.65,0.22-13.3-0.06-19.93c-0.26-6.09,2.13-10.01,7.68-12.59
		C958.19,693.33,962.6,690.42,967.62,687.55z M970.55,737.73c-6.23,3.53-12.43,6.92-18.51,10.52c-3.96,2.34-7.68,2.47-11.68,0.08
		c-5.07-3.03-10.3-5.8-16-8.99c-0.66,7.38,1.09,13.06,6.46,17.36c5.64,4.51,11.93,5.95,18.59,2.75c5.52-2.65,10.73-5.93,16.14-8.81
		C971.58,747.42,972.63,745.03,970.55,737.73z M990.83,750.29c13.21-4,16.39-22.94,5.27-30.93c-5.52-3.96-11.59-7.17-17.5-10.56
		c-5.73-3.28-8-2.68-12.12,2.93c6.05,3.52,11.95,7.29,18.16,10.45c4.86,2.47,6.57,6,6.26,11.27
		C990.58,738.9,990.83,744.38,990.83,750.29z M955.85,740.36c-5.82-3.42-11.13-6.86-16.72-9.76c-6.08-3.16-8.53-7.91-8.18-14.6
		c0.25-4.83,0.05-9.69,0.05-14.99c-7.52,3.48-11.55,8.48-12,16.06c-0.46,7.79,2.98,13.41,9.58,17.29c4.3,2.53,8.66,4.95,12.85,7.64
		C947.35,745.8,949.98,745.64,955.85,740.36z M953.81,764.19c7.37,4.79,14.04,5.91,21.09,2.07c7.11-3.87,9.64-10.02,9.33-17.86
		c-0.2-5.14,0.2-10.3,0.26-15.44c0.07-5.91-2.27-8.53-8.42-9.48c0,6.15-0.13,12.29,0.03,18.42c0.2,7.73-2.14,11.66-8.99,15.07
		C962.83,759.09,958.7,761.52,953.81,764.19z M996.74,712.16c2.68-11.01-7.1-24.9-20.63-20.15c-7.31,2.57-14.21,6.4-21.13,9.97
		c-5.89,3.04-6.42,5.49-3.16,11.8c6.47-3.77,12.97-7.46,19.35-11.33c3.22-1.95,6.05-1.92,9.27,0.12
		C985.72,705.94,991.21,708.94,996.74,712.16z M971.47,725.85c-0.04-5.81-5.63-12.1-10.65-11.99c-4.71,0.1-10.66,6.6-10.65,11.61
		c0.02,5.54,5.71,12.21,10.53,12.33C965.61,737.93,971.51,731.37,971.47,725.85z"/>
	<path class="st0" d="M875.27,532.97c7.64,5.04,12.62,10.77,12.74,19.39c0.12,8.32,0.17,16.68-0.45,24.97
		c-1.34,17.87,6.9,29.32,24.22,32.54c13.87,2.58,27.5,1.81,40.54-4c5.36-2.39,10.46-2.36,15.87-0.12c12.91,5.36,26.29,6.6,40.1,4.32
		c14.54-2.4,25.92-14.88,26.71-29.88c0.45-8.47,0.76-16.95,0.97-25.43c0.23-9.06,4.71-16.69,13.78-22
		c-7.84,17.57-4.28,36.04-7.87,53.52c-1.35,6.57-3.37,13.3-6.62,19.1c-5.04,8.98-13.48,13.87-23.99,13.53
		c-10.79-0.35-21.57-1.28-32.32-2.3c-11.65-1.1-23.09-1.43-34.62,1.71c-16.91,4.6-33.27,2.33-48.72-6.03
		c-10.41-5.64-16.61-14.2-17.43-26.16c-1.14-16.59-2.08-33.2-3.08-49.8C875.05,535.55,875.17,534.73,875.27,532.97z"/>
	<path class="st0" d="M882.27,486.18c-9.33,0.41-17.57-3.16-23.55-10.86c-5.5-7.08-10.48-14.58-15.36-22.12
		c-2.59-4.01-1.48-8.02,2.13-11.1c4.73-4.03,9.21-5.53,15.71-2.59c19.38,8.76,39.14,16.66,58.74,24.92
		c1.22,0.51,2.49,1.01,3.58,1.74c2.56,1.72,2.85,3.98,0.1,5.48C910.79,478.64,898.21,486.44,882.27,486.18z"/>
	<path class="st0" d="M1038.81,486.04c-10.6-0.17-20.18-3.82-29.38-8.72c-3.23-1.72-6.51-3.36-9.64-5.25
		c-1.18-0.71-2.96-2.25-2.77-2.99c0.33-1.31,1.75-2.75,3.07-3.33c10.66-4.69,21.39-9.21,32.12-13.73
		c10.42-4.4,20.94-8.56,31.27-13.18c4.81-2.15,8-0.67,10.67,3.2c3.53,5.12,4.2,10.69,0.83,15.95c-4.12,6.44-8.47,12.8-13.39,18.62
		C1055.77,483.49,1047.79,486.22,1038.81,486.04z"/>
	<path class="st0" d="M960.47,579c-14.79-0.09-26.6-11.64-26.81-26.44c-0.03-2.05,0.54-4.36,1.56-6.13
		c4.48-7.82,10.78-13.85,18.82-17.99c4.69-2.42,9.2-2.44,13.34,1.3c5.29,4.79,10.58,9.6,15.94,14.31c3.16,2.78,4.12,6.14,3.74,10.26
		C985.79,568.17,974.14,579.08,960.47,579z M967,544.25c-2.58-3.62-4.34-6.1-6.46-9.08c-3.04,3.24-5.61,5.99-8.19,8.73
		c0.26,0.44,0.53,0.88,0.79,1.32C957.36,544.93,961.57,544.63,967,544.25z"/>
	<path d="M878.09,260.5c5.49,0,10.98,0.18,16.46-0.07c3.44-0.16,4.16,1.47,4.39,4.42c0.97,12.41-3.3,22.67-11.77,31.68
		c-11.37,12.11-22.34,24.59-33.5,36.9c-2.57,2.83-4.97,5.88-7.87,8.33c-7.68,6.48-16.7,5.59-22.56-2.55
		c-8.15-11.34-16.13-22.81-23.62-34.59c-7.44-11.71-3.42-23.89,9.25-29.69C830.84,264.86,854.02,260.43,878.09,260.5z"/>
	<path d="M967.62,687.55c-5.02,2.87-9.43,5.79-14.17,7.99c-5.55,2.58-7.94,6.5-7.68,12.59c0.29,6.63,0.06,13.28,0.06,19.93
		c-5.74-0.6-8.76-3.44-8.81-8.52c-0.05-5.97-0.08-11.96,0.2-17.92c0.36-7.75,3.81-13.61,11.13-16.91
		C955.1,681.69,961.2,682.79,967.62,687.55z"/>
	<path d="M970.55,737.73c2.08,7.31,1.03,9.7-5,12.9c-5.41,2.88-10.62,6.16-16.14,8.81c-6.66,3.2-12.95,1.76-18.59-2.75
		c-5.37-4.29-7.12-9.98-6.46-17.36c5.7,3.19,10.93,5.96,16,8.99c4,2.39,7.72,2.26,11.68-0.08
		C958.12,744.65,964.32,741.25,970.55,737.73z"/>
	<path d="M990.83,750.29c0-5.92-0.25-11.4,0.07-16.85c0.32-5.27-1.4-8.79-6.26-11.27c-6.21-3.16-12.11-6.93-18.16-10.45
		c4.12-5.61,6.39-6.21,12.12-2.93c5.91,3.39,11.98,6.6,17.5,10.56C1007.22,727.35,1004.04,746.29,990.83,750.29z"/>
	<path d="M955.85,740.36c-5.87,5.28-8.5,5.45-14.41,1.65c-4.19-2.69-8.55-5.12-12.85-7.64c-6.6-3.88-10.04-9.5-9.58-17.29
		c0.45-7.59,4.48-12.58,12-16.06c0,5.29,0.21,10.15-0.05,14.99c-0.35,6.69,2.11,11.45,8.18,14.6
		C944.72,733.5,950.04,736.93,955.85,740.36z"/>
	<path d="M953.81,764.19c4.89-2.67,9.02-5.1,13.3-7.22c6.86-3.4,9.2-7.34,8.99-15.07c-0.16-6.13-0.03-12.27-0.03-18.42
		c6.15,0.95,8.49,3.56,8.42,9.48c-0.06,5.15-0.46,10.31-0.26,15.44c0.31,7.84-2.22,13.99-9.33,17.86
		C967.84,770.1,961.18,768.98,953.81,764.19z"/>
	<path d="M996.74,712.16c-5.52-3.22-11.02-6.23-16.3-9.58c-3.22-2.04-6.05-2.07-9.27-0.12c-6.39,3.87-12.89,7.56-19.35,11.33
		c-3.27-6.32-2.74-8.76,3.16-11.8c6.92-3.58,13.82-7.41,21.13-9.97C989.64,687.27,999.41,701.15,996.74,712.16z"/>
	<path d="M971.47,725.85c0.04,5.52-5.86,12.07-10.76,11.95c-4.82-0.12-10.52-6.79-10.53-12.33c-0.02-5.01,5.94-11.51,10.65-11.61
		C965.84,713.75,971.43,720.05,971.47,725.85z"/>
	<path d="M967,544.25c-5.44,0.39-9.65,0.68-13.86,0.98c-0.26-0.44-0.53-0.88-0.79-1.32c2.58-2.75,5.15-5.5,8.19-8.73
		C962.67,538.15,964.43,540.63,967,544.25z"/>
</g>
</svg>
